<?xml version="1.0" encoding="utf-8"?>
<!-- Generator: Adobe Illustrator 20.1.0, SVG Export Plug-In . SVG Version: 6.00 Build 0)  -->
<!DOCTYPE svg PUBLIC "-//W3C//DTD SVG 1.1//EN" "http://www.w3.org/Graphics/SVG/1.1/DTD/svg11.dtd">
<svg version="1.1" id="Layer_1" xmlns="http://www.w3.org/2000/svg" xmlns:xlink="http://www.w3.org/1999/xlink" x="0px" y="0px"
	 width="261.7px" height="31.7px" viewBox="0 0 261.7 31.7" style="enable-background:new 0 0 261.7 31.7;" xml:space="preserve">
<style type="text/css">
	.st0{fill:#2E2A25;}
</style>
<g>
	<path class="st0" d="M14.8,28.3c-6.9,0-12.1-5.7-12.1-12.8c0-7.1,5.2-12.8,12.1-12.8c3.3,0,6.2,1.3,8.4,3.3l1.3-1.3
		c-2.5-2.4-5.9-3.9-9.7-3.9c-8,0-14,6.6-14,14.7c0,8.1,6,14.7,14,14.7c3.8,0,7.2-1.5,9.7-3.9l-1.3-1.3C21,27,18.1,28.3,14.8,28.3z"
		/>
	<path class="st0" d="M49.9,1.1v13.5h-5.3v1.8h5.3v13.3h1.9V1.1H49.9z M32.7,14.6V1.1h-1.9v28.7h1.9V16.4H38v-1.8H32.7z"/>
	<path class="st0" d="M69.4,1.1h-2l0,0l1,2.6l6.4,16.5h0l0,0.1H60.1l-3.6,9.5h2l3-7.8h14l3,7.8h2L69.4,1.1z"/>
	<path class="st0" d="M96.2,18.1c5.8,0,8-4.2,8-8.5c0-4.3-2.2-8.6-7.9-8.6H85.7v1.9h10.6c4.3,0,6,3.3,6,6.7c0,3.4-1.7,6.7-6.2,6.7
		H85.7v13.4h1.9V18.1h5.7l8.2,11.6h2.3l-8.2-11.6H96.2z"/>
	<path class="st0" d="M112.7,27.8V1.1h-1.9v28.7h14.4v-1.9H112.7z"/>
	<path class="st0" d="M130.8,1.1v5.1h1.9V2.9h14V1.1H130.8z M132.6,27.8v-3.2h-1.9v5.1h16.4v-1.9H132.6z M132.6,14.7v-1.9h-1.9v5.1
		h1.9v-1.4h12.3v-1.9H132.6z"/>
	<path class="st0" d="M162.5,14.4l-4-0.9c-4.5-1-5.1-3.4-5.1-5.2c0-3.4,3.4-5.7,6.9-5.7c3.8,0,6.7,2.2,6.9,5.6h1.9
		c-0.2-4.6-4-7.5-8.8-7.5c-4.5,0-8.8,3.1-8.8,7.6c0,2.3,0.8,5.7,6.6,7l4,0.9c3.6,0.8,6.6,2.8,6,6.8c-0.5,2.5-3,5.2-7.8,5.2
		c-4.2,0-6.9-3-7.2-6h-1.9c0.3,3.9,3.8,7.9,9.1,7.9c5.8,0,8.9-3.5,9.6-6.8C170.8,18,167,15.4,162.5,14.4z"/>
	<path class="st0" d="M191.5,15.9l12.1-14.8h-2.3l-11.7,14.4V1.1h-1.9v28.7h1.9V16.6l13.5,13.1h2.6L191.5,15.9z"/>
	<path class="st0" d="M209.9,1.1v5.1h1.9V2.9h14V1.1H209.9z M211.8,27.8v-3.2h-1.9v5.1h16.4v-1.9H211.8z M211.8,16.6h12.3v-1.9
		h-12.3v-1.9h-1.9v5.1h1.9V16.6z"/>
	<path class="st0" d="M232.9,1.1v28.7h1.9V1.1H232.9z"/>
	<path class="st0" d="M245.2,27.8V1.1h-1.9v28.7h14.4v-1.9H245.2z"/>
</g>
</svg>
