<svg id="Layer_1" data-name="Layer 1" xmlns="http://www.w3.org/2000/svg" viewBox="0 0 286.08 91"><title>web-logo</title><path d="M15.32,20v90l12-32H25.16L17.32,98.54V22H45.38L41,33.86,34.83,51H37L42.9,34.53,48.25,20Z" transform="translate(-15.32 -20)" fill="#fff"/><polygon points="44.77 0 14.05 91 11.95 91 23.02 57.66 23.92 54.66 24.07 54.55 42.66 0 44.77 0" fill="#fff"/><polygon points="41 44.48 56.02 91 53.91 91 38.9 44.48 53.91 0 56.02 0 41 44.48" fill="#fff"/><text transform="translate(53.7 56.32)" font-size="37.26" fill="#fff" font-family="SofiaProExtraLight, Sofia Pro">CHARL<tspan x="114.72" y="0" letter-spacing="-0.01em">E</tspan><tspan x="134.77" y="0">S KEI</tspan><tspan x="215.54" y="0" letter-spacing="-0.03em">L</tspan></text><line x1="23.92" y1="54.33" x2="23.02" y2="57" fill="#fff"/><line x1="56.09" y1="59.32" x2="286.08" y2="59.32" fill="#fff"/><rect x="56.09" y="58.57" width="229.99" height="1.5" fill="#fff"/></svg>