<?xml version="1.0" encoding="utf-8"?>
<!-- Generator: Adobe Illustrator 20.1.0, SVG Export Plug-In . SVG Version: 6.00 Build 0)  -->
<!DOCTYPE svg PUBLIC "-//W3C//DTD SVG 1.1//EN" "http://www.w3.org/Graphics/SVG/1.1/DTD/svg11.dtd">
<svg version="1.1" id="Capa_1" xmlns="http://www.w3.org/2000/svg" xmlns:xlink="http://www.w3.org/1999/xlink" x="0px" y="0px"
	 width="39.8px" height="38.3px" viewBox="0 0 39.8 38.3" style="enable-background:new 0 0 39.8 38.3;" xml:space="preserve">
<g>
	<path d="M51.6,24.6h-3.5v-3.2h3.1c0.7,0,1.2,0.1,1.7,0.2c0.5,0.2,0.8,0.7,0.8,1.3c0,0.6-0.2,1-0.6,1.3
		C52.7,24.5,52.2,24.6,51.6,24.6z"/>
	<path d="M54,28.8c0,0.9-0.3,1.5-0.9,1.8c-0.3,0.2-0.8,0.3-1.4,0.3h-3.5V27h3.5c0.6,0,1.1,0.1,1.4,0.2C53.7,27.5,54,28,54,28.8z"/>
	<path d="M65.3,25.3c-0.4-0.4-1-0.6-1.6-0.6c-0.7,0-1.3,0.2-1.6,0.6c-0.4,0.4-0.6,1-0.7,1.7H66C66,26.2,65.7,25.6,65.3,25.3z
		 M65.3,25.3c-0.4-0.4-1-0.6-1.6-0.6c-0.7,0-1.3,0.2-1.6,0.6c-0.4,0.4-0.6,1-0.7,1.7H66C66,26.2,65.7,25.6,65.3,25.3z M40.9,6.4
		v31.9h31.7V6.4H40.9z M60,20.4h7.4v1.5H60V20.4z M56.3,31.3c-0.3,0.5-0.6,0.8-1,1.1c-0.5,0.4-1,0.6-1.6,0.7c-0.6,0.1-1.3,0.2-2,0.2
		h-6.4V18.9h6.9c1.7,0,3,0.5,3.7,1.5c0.4,0.6,0.7,1.3,0.7,2.2c0,0.9-0.2,1.6-0.7,2.1c-0.2,0.3-0.6,0.6-1.1,0.8
		c0.7,0.3,1.3,0.7,1.6,1.3c0.4,0.6,0.6,1.3,0.6,2.1C57,29.8,56.7,30.6,56.3,31.3z M68.9,28.8h-7.7c0,1.1,0.4,1.8,1.1,2.2
		c0.4,0.3,0.9,0.4,1.5,0.4c0.6,0,1.1-0.2,1.5-0.5c0.2-0.2,0.4-0.4,0.6-0.7h2.8c-0.1,0.6-0.4,1.3-1,1.9c-0.9,1-2.3,1.6-4,1.6
		c-1.4,0-2.6-0.4-3.7-1.3c-1.1-0.9-1.6-2.3-1.6-4.3c0-1.8,0.5-3.3,1.4-4.2c1-1,2.2-1.5,3.8-1.5c0.9,0,1.7,0.2,2.5,0.5
		c0.7,0.3,1.3,0.9,1.8,1.6c0.4,0.6,0.7,1.4,0.8,2.2C68.9,27.1,68.9,27.9,68.9,28.8z M65.3,25.3c-0.4-0.4-1-0.6-1.6-0.6
		c-0.7,0-1.3,0.2-1.6,0.6c-0.4,0.4-0.6,1-0.7,1.7H66C66,26.2,65.7,25.6,65.3,25.3z"/>
</g>
<path d="M4.2,6.6c10.6,0,21.2,0,31.8,0c0,10.6,0,21.2,0,31.9c-10.6,0-21.1,0-31.8,0C4.2,27.9,4.2,17.3,4.2,6.6z M31.1,33.1
	c0-2.9,0-5.8,0-8.6c0-0.6-0.1-1.2-0.3-1.8c-0.5-2-1.6-3.5-3.7-4c-2.1-0.5-3.9-0.1-5.4,1.6c-0.1,0.1-0.2,0.2-0.4,0.3
	c0-0.7,0-1.2,0-1.7c-1.6,0-3.1,0-4.7,0c0,4.8,0,9.4,0,14.2c1.6,0,3.1,0,4.7,0c0-0.4,0-0.8,0-1.1c0-2.4,0-4.7,0-7.1
	c0-1.5,1.1-2.5,2.6-2.5c1.3,0,2.2,0.8,2.3,2.3c0.1,2.4,0.1,4.9,0.1,7.3c0,0.4,0,0.8,0,1.2C28.1,33.1,29.6,33.1,31.1,33.1z M14,18.9
	c-1.6,0-3.1,0-4.7,0c0,4.8,0,9.4,0,14.2c1.6,0,3.1,0,4.7,0C14,28.3,14,23.7,14,18.9z M14.3,14.5c0-1.5-1-2.5-2.6-2.5
	c-1.6,0-2.7,1-2.7,2.4c0,1.4,1.1,2.5,2.6,2.5C13.1,16.9,14.3,15.9,14.3,14.5z"/>
</svg>
